<?xml version="1.0" encoding="utf-8"?>
<!-- Generator: Adobe Illustrator 16.0.4, SVG Export Plug-In . SVG Version: 6.00 Build 0)  -->
<!DOCTYPE svg PUBLIC "-//W3C//DTD SVG 1.1//EN" "http://www.w3.org/Graphics/SVG/1.1/DTD/svg11.dtd">
<svg version="1.1" id="Layer_1" xmlns="http://www.w3.org/2000/svg" xmlns:xlink="http://www.w3.org/1999/xlink" x="0px" y="0px"
	 width="256px" height="256px" viewBox="0 0 256 256" enable-background="new 0 0 256 256" xml:space="preserve">
<g>
	<polygon fill="#FFFFFF" points="97.22,219 247,80.601 247,66.857 89.43,168.573 8,127.175 8,147.984 87.032,219 	"/>
	<g>
		<path fill="#A1DD10" d="M9.843,94.814l4.541-0.655l19.34-55.271h13.054l19.209,55.271l4.541,0.655v7.64H48.874v-7.64l4.41-0.785
			l-2.795-8.733H29.883l-2.794,8.733l4.409,0.785v7.64H9.843V94.814z M32.895,75.911h14.582l-7.159-22.397h-0.262L32.895,75.911z"/>
		<path fill="#A1DD10" d="M102.966,38.888c7.479,0,13.316,1.457,17.506,4.366c4.191,2.911,6.288,7.262,6.288,13.054
			c0,2.94-0.779,5.566-2.336,7.879c-1.558,2.314-3.82,4.055-6.789,5.218c3.813,0.814,6.672,2.561,8.579,5.239
			c1.906,2.678,2.859,5.778,2.859,9.299c0,6.083-2.008,10.69-6.024,13.818c-4.016,3.129-9.708,4.693-17.07,4.693H74.72v-7.64
			l6.767-1.309V47.882l-6.767-1.31v-7.684h6.767H102.966z M94.234,65.521h9.169c3.405,0,6.025-0.699,7.859-2.096
			c1.833-1.397,2.75-3.435,2.75-6.112c0-2.939-0.924-5.108-2.772-6.506c-1.849-1.396-4.606-2.095-8.273-2.095h-8.732V65.521z
			 M94.234,74.339v18.337h11.745c3.375,0,5.952-0.736,7.727-2.205c1.774-1.47,2.663-3.646,2.663-6.527
			c0-3.113-0.757-5.493-2.27-7.138c-1.514-1.644-3.9-2.466-7.16-2.466H94.234z"/>
		<path fill="#A1DD10" d="M185.917,60.324h-9.475l-1.309-8.469c-1.252-1.251-2.833-2.241-4.738-2.969
			c-1.907-0.727-4.155-1.091-6.745-1.091c-5.531,0-9.786,2.008-12.77,6.025c-2.984,4.016-4.476,9.256-4.476,15.718v2.226
			c0,6.461,1.485,11.716,4.454,15.761c2.969,4.045,7.16,6.068,12.573,6.068c2.502,0,4.795-0.363,6.876-1.091
			c2.08-0.728,3.689-1.717,4.825-2.969l1.309-8.469h9.475v12.574c-2.562,2.968-5.829,5.334-9.802,7.094
			c-3.974,1.761-8.419,2.642-13.337,2.642c-8.529,0-15.514-2.955-20.957-8.863c-5.442-5.908-8.164-13.49-8.164-22.746v-2.139
			c0-9.226,2.707-16.808,8.12-22.746c5.413-5.937,12.415-8.906,21.001-8.906c4.918,0,9.355,0.895,13.314,2.685
			c3.958,1.791,7.234,4.156,9.824,7.094V60.324z"/>
	</g>
</g>
</svg>
